<svg aria-hidden="true" style="position:absolute;width:0;height:0;overflow:hidden" xmlns="http://www.w3.org/2000/svg"><defs><symbol id="right-arrow-tale" viewBox="0 0 32 32"><path d="m19.414 27.414 10-10a2 2 0 0 0 0-2.828l-10-10a2 2 0 1 0-2.828 2.828L23.172 14H4a2 2 0 1 0 0 4h19.172l-6.586 6.586c-.39.39-.586.902-.586 1.414s.195 1.024.586 1.414a2 2 0 0 0 2.828 0z"/></symbol><symbol id="burger" viewBox="0 0 32 32"><path d="M0 5.76v1.28h32v-1.28zM0 15.36v1.28h32v-1.28zM0 24.96v1.28h32v-1.28z"></path></symbol><symbol id="close" viewBox="0 0 32 32"><path d="M31.68 1.827l-1.507-1.507-14.173 14.173-14.173-14.173-1.507 1.507 14.173 14.173-14.173 14.173 1.507 1.507 14.173-14.173 14.173 14.173 1.507-1.507-14.173-14.173 14.173-14.173z"></path></symbol><symbol id="facebook" viewBox="0 0 16 32"><path fill="#fff" style="fill:var(--color2, #fff)" d="M14.143 15.972h-4.034v14.865H3.997V15.972H1.09v-5.224h2.907V7.367c0-2.418 1.142-6.203 6.166-6.203l4.527.019v5.071h-3.285c-.539 0-1.296.271-1.296 1.424v3.075h4.567l-.534 5.219z"/></symbol><symbol id="github" viewBox="0 0 32 32"><path  d="M16 0C7.212 0 0 7.212 0 16c0 7.499 5.262 14.312 12.25 16v-5.293c-.692.152-1.33.156-2.034-.052-.946-.279-1.714-.909-2.284-1.869-.364-.613-1.008-1.278-1.68-1.23l-.165-1.868c1.453-.124 2.711.886 3.457 2.14.332.558.713.884 1.203 1.029.473.14.982.072 1.574-.137.149-1.186.692-1.63 1.102-2.255v-.001c-4.167-.622-5.828-2.832-6.488-4.578-.874-2.317-.405-5.212 1.14-7.041.03-.036.084-.129.063-.194-.708-2.139.155-3.909.187-4.097.817.242.95-.243 3.551 1.337l.449.27c.188.112.129.048.317.034A13.544 13.544 0 0 1 16 7.723c1.136.015 2.273.178 3.404.484l.145.015c-.013-.002.04-.009.127-.062 3.248-1.968 3.132-1.324 4.003-1.608.032.188.883 1.987.182 4.099-.095.291 2.816 2.956 1.203 7.235-.659 1.746-2.32 3.957-6.487 4.578v.001c.534.814 1.176 1.247 1.173 2.927V32C26.738 30.312 32 23.499 32 16c0-8.788-7.212-16-16-16z"/></symbol><symbol id="right-arrow" viewBox="0 0 32 32"><path d="M6.963 29.283c0-0.614 0.23-1.229 0.701-1.696l11.584-11.587-11.584-11.587c-0.938-0.938-0.938-2.454 0-3.392s2.454-0.938 3.392 0l13.28 13.283c0.938 0.938 0.938 2.454 0 3.392l-13.28 13.28c-0.938 0.938-2.454 0.938-3.392 0-0.47-0.467-0.701-1.082-0.701-1.693z"></path></symbol><symbol id="telegram" viewBox="0 0 32 32"><path fill="#fff" style="fill:var(--color2, #fff)" d="m12.613 19.671-.491 6.444c.702 0 1.006-.282 1.371-.62l3.293-2.937 6.822 4.663c1.251.651 2.133.308 2.47-1.074l4.478-19.585.001-.001c.397-1.726-.669-2.401-1.888-1.978L2.346 13.989c-1.796.651-1.769 1.585-.305 2.009l6.73 1.954 15.632-9.129c.736-.455 1.404-.203.854.252L12.612 19.672z"/></symbol></defs></svg>