<svg id="Layer_1" data-name="Layer 1" xmlns="http://www.w3.org/2000/svg" viewBox="0 0 61.95 122.88">
  <defs>
    <style>
      .cls-2{fill-rule:evenodd;fill:#fff}.cls-7{fill:none;stroke:#fff;stroke-linecap:round;stroke-linejoin:round;stroke-width:1.54px}
    </style>
  </defs>
  <path d="M44 20.38c0-9-16.2-9.63-6.78-18.47-11.44-4.38-23.56 3.33-20.91 17.55C7.68 20.78 4 29.62 8.36 38.12-1.11 40.74-3.38 50.7 6 58.62h49.29C66.49 53 62.36 37 51.78 34.79c1.95-8.32-1.46-12.49-7.78-14.41Z" style="fill-rule:evenodd;fill:#ef6c93"/>
  <path class="cls-2" d="M44 20.38a7.07 7.07 0 0 0-.33-2.15 19.16 19.16 0 0 1-7.34 4.95 8.91 8.91 0 0 1-6.57 0 1.92 1.92 0 0 0-1.56 3.5 12.62 12.62 0 0 0 9.37.16 23 23 0 0 0 8.58-5.64 18.1 18.1 0 0 0-2.15-.8ZM55.35 36.16a12 12 0 0 0-3.57-1.37c.18-.79.32-1.55.41-2.27a45.2 45.2 0 0 0-8.92 3.27c-6.38 2.83-13.66 6.06-19.83 2.92a1.92 1.92 0 0 0-1.74 3.42c7.79 4 16 .35 23.12-2.82 4.13-1.84 7.89-3.5 10.48-3.16Z"/>
  <path d="M26.26 122.88 4.11 63.13c19.74-.9 29.39.15 51.49 0l-23.15 59.75Z" style="fill:#f8af46;fill-rule:evenodd"/>
  <path d="m26 109.12-2.17-5.87 13.86-3.14-2.7 7-9 2Zm-4.46-12-2.17-5.86 23.86-5.42-2.7 7-19 4.31Zm-4.45-12-2.22-5.92 33.86-7.68-2.7 7-29 6.58Z" style="fill:#fac882;fill-rule:evenodd"/>
  <path d="M38.12 0a9.73 9.73 0 1 1-6.87 2.85A9.69 9.69 0 0 1 38.12 0Z" style="fill:#fff"/>
  <path d="M38.12 1.92a7.8 7.8 0 1 1-7.8 7.8 7.8 7.8 0 0 1 7.8-7.8Z" style="fill:#ee3f69;fill-rule:evenodd"/>
  <path class="cls-2" d="M22.3 13.83a2 2 0 1 1-2 2 2 2 0 0 1 2-2ZM29.87 47.08a1.39 1.39 0 1 1-1.38 1.39 1.38 1.38 0 0 1 1.38-1.39Z"/>
  <path class="cls-7" d="m23.95 50.62 1.77 2.1"/>
  <path class="cls-2" d="M51.65 46a1.39 1.39 0 1 1-1.39 1.38A1.38 1.38 0 0 1 51.65 46Z"/>
  <path class="cls-7" d="m45.73 49.5 1.77 2.1"/>
  <path class="cls-2" d="M12.52 44.64A1.38 1.38 0 1 1 11.14 46a1.38 1.38 0 0 1 1.38-1.38Z"/>
  <path class="cls-7" d="m6.61 48.17 1.76 2.1"/>
</svg>
